<svg width="18" height="18" viewBox="0 0 18 18" fill="none" xmlns="http://www.w3.org/2000/svg">
<path d="M7.82227 2.36426L8.60273 1.58379C8.9332 1.25332 9.46758 1.25332 9.79453 1.58379L16.6289 8.41465C16.9594 8.74512 16.9594 9.27949 16.6289 9.60645L9.79453 16.4408C9.46406 16.7713 8.92969 16.7713 8.60273 16.4408L7.82227 15.6604C7.48828 15.3264 7.49531 14.7814 7.83633 14.4545L12.0727 10.4186H1.96875C1.50117 10.4186 1.125 10.0424 1.125 9.57481V8.4498C1.125 7.98223 1.50117 7.60605 1.96875 7.60605H12.0727L7.83633 3.57012C7.4918 3.24316 7.48477 2.69824 7.82227 2.36426Z" fill="black"/>
<mask id="mask0" mask-type="alpha" maskUnits="userSpaceOnUse" x="1" y="1" width="16" height="16">
<path d="M7.82227 2.36426L8.60273 1.58379C8.9332 1.25332 9.46758 1.25332 9.79453 1.58379L16.6289 8.41465C16.9594 8.74512 16.9594 9.27949 16.6289 9.60645L9.79453 16.4408C9.46406 16.7713 8.92969 16.7713 8.60273 16.4408L7.82227 15.6604C7.48828 15.3264 7.49531 14.7814 7.83633 14.4545L12.0727 10.4186H1.96875C1.50117 10.4186 1.125 10.0424 1.125 9.57481V8.4498C1.125 7.98223 1.50117 7.60605 1.96875 7.60605H12.0727L7.83633 3.57012C7.4918 3.24316 7.48477 2.69824 7.82227 2.36426Z" fill="white"/>
</mask>
<g mask="url(#mask0)">
<rect width="18" height="18" fill="white"/>
</g>
</svg>
