<svg width="144" height="68" viewBox="0 0 144 68" fill="none" xmlns="http://www.w3.org/2000/svg">
<g clip-path="url(#clip0)">
<path d="M8.75006 45.2105V52.3078C8.74868 52.7698 8.56385 53.2124 8.23596 53.5391C7.90807 53.8658 7.46375 54.05 7.00005 54.0513H1.75001C1.28631 54.05 0.841988 53.8658 0.514097 53.5391C0.186205 53.2124 0.0013849 52.7698 0 52.3078L0 28.8922C1.42753 35.0029 4.44547 40.6312 8.75006 45.2105Z" fill="url(#paint0_linear)"/>
<path d="M21.0002 53.7462V66.2564C20.9988 66.7184 20.814 67.1611 20.4861 67.4878C20.1582 67.8145 19.7139 67.9986 19.2502 68H14.0001C13.5364 67.9986 13.0921 67.8145 12.7642 67.4878C12.4363 67.1611 12.2515 66.7184 12.2501 66.2564V48.4718C14.8991 50.6371 17.8457 52.4133 21.0002 53.7462Z" fill="url(#paint1_linear)"/>
<path d="M70.0004 42.0737V46.2052C69.999 46.6672 69.8142 47.1098 69.4863 47.4365C69.1584 47.7632 68.7141 47.9474 68.2504 47.9487H63.0004C62.5367 47.9474 62.0924 47.7632 61.7645 47.4365C61.4366 47.1098 61.2518 46.6672 61.2504 46.2052V43.4773C61.7987 43.4407 62.3447 43.3945 62.8884 43.3387C65.2875 43.0953 67.6649 42.6724 70.0004 42.0737Z" fill="url(#paint2_linear)"/>
<path d="M8.75006 20.923V45.2104C4.44547 40.6311 1.42753 35.0028 0 28.8921L0 20.923C0.0013849 20.461 0.186205 20.0183 0.514097 19.6917C0.841988 19.365 1.28631 19.1808 1.75001 19.1794H7.00005C7.46375 19.1808 7.90807 19.365 8.23596 19.6917C8.56385 20.0183 8.74868 20.461 8.75006 20.923Z" fill="url(#paint3_linear)"/>
<path d="M21.0002 26.4887V53.7462C17.8457 52.4133 14.8991 50.6372 12.2501 48.4719V11.1538C14.1923 16.7595 17.1589 21.9587 21.0002 26.4887Z" fill="url(#paint4_linear)"/>
<path d="M33.2502 36.843V41.8462C33.2488 42.3082 33.064 42.7509 32.7361 43.0776C32.4082 43.4042 31.9639 43.5884 31.5002 43.5898H26.2501C25.7864 43.5884 25.3421 43.4042 25.0142 43.0776C24.6863 42.7509 24.5015 42.3082 24.5001 41.8462V30.2034C27.154 32.7408 30.0896 34.9684 33.2502 36.843Z" fill="url(#paint5_linear)"/>
<path d="M57.7504 43.5896V52.3076C57.749 52.7696 57.5642 53.2123 57.2363 53.539C56.9084 53.8657 56.4641 54.0498 56.0004 54.0512H50.7504C50.2869 54.0491 49.843 53.8648 49.5152 53.5382C49.1875 53.2117 49.0024 52.7694 49.0004 52.3076V42.7693C51.8861 43.3059 54.8148 43.5805 57.7504 43.5896Z" fill="url(#paint6_linear)"/>
<path d="M45.5003 41.9821V52.3076C45.4989 52.7696 45.3141 53.2123 44.9862 53.539C44.6583 53.8657 44.214 54.0498 43.7503 54.0512H38.5003C38.0366 54.0498 37.5922 53.8657 37.2643 53.539C36.9364 53.2123 36.7516 52.7696 36.7502 52.3076V38.7285C39.5534 40.0948 42.4841 41.1845 45.5003 41.9821Z" fill="url(#paint7_linear)"/>
<path d="M21.0002 5.23077V26.4886C17.1589 21.9586 14.1923 16.7594 12.2501 11.1537V5.23077C12.2515 4.76877 12.4363 4.32608 12.7642 3.99939C13.0921 3.6727 13.5364 3.48856 14.0001 3.48718H19.2502C19.7139 3.48856 20.1582 3.6727 20.4861 3.99939C20.814 4.32608 20.9988 4.76877 21.0002 5.23077Z" fill="url(#paint8_linear)"/>
<path d="M70.0004 35.7436V42.0737C67.6649 42.6724 65.2875 43.0952 62.8884 43.3387C62.3447 43.3968 61.7987 43.443 61.2504 43.4773V35.7436C61.2518 35.2816 61.4366 34.8389 61.7645 34.5122C62.0924 34.1855 62.5367 34.0014 63.0004 34H68.2504C68.2977 34 68.3449 34 68.3922 34.0061C68.8298 34.0427 69.2377 34.2415 69.5355 34.5632C69.8332 34.8848 69.9991 35.306 70.0004 35.7436Z" fill="url(#paint9_linear)"/>
<path d="M57.7504 29.6412V43.5899C54.8149 43.581 51.8862 43.3067 49.0004 42.7704V29.6412C49.0018 29.1792 49.1866 28.7365 49.5145 28.4098C49.8424 28.0831 50.2867 27.899 50.7504 27.8976H56.0004C56.4641 27.899 56.9084 28.0831 57.2363 28.4098C57.5642 28.7365 57.749 29.1792 57.7504 29.6412Z" fill="url(#paint10_linear)"/>
<path d="M33.2502 1.74359V36.8429C30.0896 34.9684 27.154 32.7408 24.5001 30.2034V1.74359C24.5015 1.28159 24.6863 0.838898 25.0142 0.51221C25.3421 0.185522 25.7864 0.00137981 26.2501 0L31.5002 0C31.9639 0.00137981 32.4082 0.185522 32.7361 0.51221C33.064 0.838898 33.2488 1.28159 33.2502 1.74359Z" fill="url(#paint11_linear)"/>
<path d="M45.5003 12.205V41.982C42.4841 41.1845 39.5534 40.0948 36.7502 38.7285V12.205C36.7516 11.743 36.9364 11.3003 37.2643 10.9736C37.5922 10.6469 38.0366 10.4628 38.5003 10.4614H43.7503C44.214 10.4628 44.6583 10.6469 44.9862 10.9736C45.3141 11.3003 45.4989 11.743 45.5003 12.205Z" fill="url(#paint12_linear)"/>
<path d="M143.356 27.5453H138.451V44.6508H143.356V27.5453Z" fill="black"/>
<path d="M95.0308 35.4916C96.4851 34.8894 97.7277 33.8717 98.6021 32.5667C99.4765 31.2617 99.9434 29.728 99.944 28.1589C99.9437 26.0527 99.1038 24.0329 97.6089 22.5436C96.114 21.0544 94.0866 20.2178 91.9727 20.2178H81.5505V44.6498H86.4505V36.0975H90.4755L95.4351 44.6498H100.34L95.0308 35.4916ZM94.9302 28.7692C94.9302 29.5785 94.6075 30.3546 94.0332 30.9268C93.4589 31.499 92.6799 31.8205 91.8677 31.8205H86.4426V24.4904H91.8677C92.6799 24.4904 93.4589 24.8119 94.0332 25.3841C94.6075 25.9564 94.9302 26.7325 94.9302 27.5417V28.7692Z" fill="black"/>
<path d="M110.513 26.3891C110.414 26.3891 110.315 26.3839 110.216 26.3839C107.838 26.3849 105.553 27.303 103.84 28.9457C102.128 30.5884 101.12 32.8281 101.028 35.1951C101.219 30.3959 105.365 26.5408 110.513 26.3891ZM101.024 35.9004C101.115 38.2674 102.123 40.5071 103.836 42.1499C105.549 43.7926 107.834 44.7107 110.211 44.7116C110.311 44.7116 110.41 44.7116 110.509 44.7064C105.365 44.5539 101.219 40.6996 101.024 35.9004Z" fill="black"/>
<path d="M140.903 25.7118C142.427 25.7118 143.662 24.4811 143.662 22.963C143.662 21.4449 142.427 20.2142 140.903 20.2142C139.379 20.2142 138.144 21.4449 138.144 22.963C138.144 24.4811 139.379 25.7118 140.903 25.7118Z" fill="black"/>
<path d="M118.799 35.5474C118.799 33.1688 117.87 30.8834 116.21 29.1744C114.549 27.4653 112.287 26.4666 109.901 26.3892C104.754 26.5409 100.608 30.3994 100.413 35.1943C100.413 35.2326 100.413 35.2719 100.413 35.3102C100.413 35.3896 100.413 35.468 100.413 35.5465C100.413 35.625 100.413 35.7043 100.413 35.7836C100.413 35.822 100.413 35.8612 100.413 35.8996C100.608 40.6988 104.754 44.553 109.901 44.7047C110.006 44.7047 110.111 44.7099 110.217 44.7099C113.305 44.7099 116.058 43.377 117.857 41.2942L117.104 40.8496L114.216 39.1479C113.246 40.3684 111.827 41.1417 110.246 41.1417C108.03 41.1417 106.133 39.6265 105.34 37.4801H118.596C118.731 36.8447 118.799 36.1969 118.799 35.5474ZM105.278 34.2397C105.85 32.1212 107.665 30.5738 109.816 30.5738C111.967 30.5738 113.781 32.1212 114.353 34.2397H105.278Z" fill="black"/>
<path d="M136.788 27.5443H131.638L125.506 34.3155V20.2142H120.601V44.6498H125.506V37.7574L131.638 44.6498H136.788L129.246 36.0975L136.788 27.5443Z" fill="black"/>
</g>
<defs>
<linearGradient id="paint0_linear" x1="-3.8684" y1="49.1728" x2="8.1989" y2="37.061" gradientUnits="userSpaceOnUse">
<stop stop-color="#20C9B0"/>
<stop offset="1" stop-color="#008573"/>
</linearGradient>
<linearGradient id="paint1_linear" x1="991.82" y1="14503.3" x2="2826.36" y2="13681.2" gradientUnits="userSpaceOnUse">
<stop stop-color="#20C9B0"/>
<stop offset="1" stop-color="#008573"/>
</linearGradient>
<linearGradient id="paint2_linear" x1="6318.5" y1="3293.07" x2="6741.67" y2="2662.81" gradientUnits="userSpaceOnUse">
<stop stop-color="#20C9B0"/>
<stop offset="1" stop-color="#008573"/>
</linearGradient>
<linearGradient id="paint3_linear" x1="0.287877" y1="36.7792" x2="12.7911" y2="24.23" gradientUnits="userSpaceOnUse">
<stop stop-color="#20C9B0"/>
<stop offset="1" stop-color="#21C9B0"/>
</linearGradient>
<linearGradient id="paint4_linear" x1="651.793" y1="20844.4" x2="4246.01" y2="20106" gradientUnits="userSpaceOnUse">
<stop stop-color="#20C9B0"/>
<stop offset="1" stop-color="#008573"/>
</linearGradient>
<linearGradient id="paint5_linear" x1="2383.08" y1="6426.23" x2="3398.56" y2="5762.45" gradientUnits="userSpaceOnUse">
<stop stop-color="#20C9B0"/>
<stop offset="1" stop-color="#008573"/>
</linearGradient>
<linearGradient id="paint6_linear" x1="4910.44" y1="6855.13" x2="6048.21" y2="5972.62" gradientUnits="userSpaceOnUse">
<stop stop-color="#20C9B0"/>
<stop offset="1" stop-color="#008573"/>
</linearGradient>
<linearGradient id="paint7_linear" x1="3571.78" y1="9113.58" x2="5067.62" y2="8259.37" gradientUnits="userSpaceOnUse">
<stop stop-color="#20C9B0"/>
<stop offset="1" stop-color="#008573"/>
</linearGradient>
<linearGradient id="paint8_linear" x1="13.2984" y1="18.8151" x2="24.2864" y2="7.7857" gradientUnits="userSpaceOnUse">
<stop stop-color="#20C9B0"/>
<stop offset="0.39" stop-color="#24CBB2"/>
<stop offset="0.76" stop-color="#2FD0B9"/>
<stop offset="1" stop-color="#3BD5C1"/>
</linearGradient>
<linearGradient id="paint9_linear" x1="6157.77" y1="4729.42" x2="7088.12" y2="3870.45" gradientUnits="userSpaceOnUse">
<stop stop-color="#20C9B0"/>
<stop offset="0.39" stop-color="#24CBB2"/>
<stop offset="0.76" stop-color="#2FD0B9"/>
<stop offset="1" stop-color="#3BD5C1"/>
</linearGradient>
<linearGradient id="paint10_linear" x1="4840.88" y1="7532.41" x2="6568.57" y2="6569.05" gradientUnits="userSpaceOnUse">
<stop stop-color="#20C9B0"/>
<stop offset="0.39" stop-color="#24CBB2"/>
<stop offset="0.76" stop-color="#2FD0B9"/>
<stop offset="1" stop-color="#3BD5C1"/>
</linearGradient>
<linearGradient id="paint11_linear" x1="21.0325" y1="26.7484" x2="39.9808" y2="7.72943" gradientUnits="userSpaceOnUse">
<stop stop-color="#20C9B0"/>
<stop offset="0.16" stop-color="#25CBB3"/>
<stop offset="0.35" stop-color="#33D2BD"/>
<stop offset="0.55" stop-color="#4BDCCC"/>
<stop offset="0.77" stop-color="#6DEBE2"/>
<stop offset="0.99" stop-color="#98FEFD"/>
<stop offset="1" stop-color="#9AFFFF"/>
</linearGradient>
<linearGradient id="paint12_linear" x1="3328.62" y1="12632.9" x2="6679.78" y2="11702.6" gradientUnits="userSpaceOnUse">
<stop stop-color="#20C9B0"/>
<stop offset="0.16" stop-color="#25CBB3"/>
<stop offset="0.35" stop-color="#33D2BD"/>
<stop offset="0.55" stop-color="#4BDCCC"/>
<stop offset="0.77" stop-color="#6DEBE2"/>
<stop offset="0.99" stop-color="#98FEFD"/>
<stop offset="1" stop-color="#9AFFFF"/>
</linearGradient>
<clipPath id="clip0">
<rect width="143.662" height="68" fill="white"/>
</clipPath>
</defs>
</svg>
